<svg width="54" height="36" viewBox="0 0 54 36" fill="none" xmlns="http://www.w3.org/2000/svg">
<path d="M15.5882 14.5602C15.6163 14.0276 15.6278 13.4962 15.5875 12.9354C15.5472 12.3746 15.4598 11.8503 15.3559 11.3272L18.6407 8.35543C18.9363 8.08548 18.9868 7.6342 18.7628 7.28554L15.0536 1.81542C14.9442 1.65223 14.7802 1.53335 14.591 1.48011C14.4018 1.42686 14.1999 1.44272 14.0214 1.52485L10.0327 3.4695C9.12757 2.87135 8.16475 2.3934 7.12893 2.05334L6.18799 -2.27273C6.14675 -2.46485 6.03684 -2.63532 5.87887 -2.75217C5.72091 -2.86902 5.52573 -2.92422 5.32996 -2.90743L-1.26796 -2.43326C-1.68033 -2.40363 -2.00538 -2.08183 -2.02641 -1.68239L-2.33908 2.73377C-3.31563 3.21845 -4.19903 3.84566 -5.01053 4.5506L-9.23627 3.19629C-9.33425 3.17071 -9.43572 3.16121 -9.53674 3.16814C-9.81715 3.18829 -10.0869 3.3569 -10.2164 3.63148L-13.1052 9.57576C-13.2935 9.95406 -13.1626 10.3923 -12.8314 10.6172L-9.15538 13.0887C-9.18343 13.6213 -9.19379 14.1692 -9.15467 14.7135C-9.11556 15.2578 -9.02695 15.7986 -8.92304 16.3217L-12.2078 19.2935C-12.5035 19.5634 -12.5539 20.0147 -12.3299 20.3634L-8.62081 25.8335C-8.51134 25.9967 -8.34733 26.1155 -8.15817 26.1688C-7.96901 26.222 -7.76707 26.2062 -7.58854 26.1241L-3.59988 24.1794C-2.69474 24.7776 -1.73191 25.2555 -0.696092 25.5956L0.244846 29.9216C0.32278 30.3139 0.690508 30.586 1.10288 30.5563L7.70079 30.0822C8.11316 30.0525 8.43822 29.7307 8.45925 29.3313L8.77192 24.9151C9.74847 24.4304 10.6319 23.8032 11.4434 23.0983L15.6691 24.4526C15.7705 24.4785 15.8706 24.4879 15.9696 24.4808C16.25 24.4606 16.5197 24.292 16.6492 24.0174L19.538 18.0731C19.7099 17.696 19.5954 17.2566 19.2642 17.0317L15.5882 14.5602ZM12.1195 11.9743C12.2223 12.4809 12.2637 12.8261 12.2886 13.1725C12.3134 13.5189 12.3065 13.8841 12.2926 14.3825L12.1956 16.263L13.7467 17.3122L15.6277 18.5697L14.6165 20.6485L12.4612 19.9579L10.6959 19.3884L9.29201 20.6167C8.62066 21.1955 7.97283 21.64 7.31669 21.969L5.61922 22.8039L5.48925 24.6868L5.31939 26.9373L3.01012 27.1033L2.53669 24.899L2.13882 23.054L0.339396 22.4704C-0.391218 22.2245 -1.07828 21.8925 -1.77363 21.4451L-3.35763 20.3983L-5.05511 21.2333L-7.08949 22.225L-8.38756 20.3122L-6.7057 18.7986L-5.32064 17.5384L-5.68552 15.6911C-5.77175 15.1833 -5.83201 14.8063 -5.85572 14.4764C-5.87943 14.1465 -5.8737 13.7648 -5.85978 13.2664L-5.7628 11.3859L-7.31382 10.3367L-9.19483 9.0792L-8.18363 7.00035L-6.02834 7.69104L-4.26309 8.26054L-2.85917 7.0322C-2.18783 6.4534 -1.53999 6.00892 -0.883854 5.67991L0.81362 4.84498L0.943586 2.9621L1.11345 0.711593L3.40623 0.54682L3.87966 2.75109L4.27753 4.59604L6.07695 5.17966C6.80756 5.42559 7.49462 5.75756 8.18997 6.20499L9.77398 7.25175L11.4715 6.41682L13.5058 5.42504L14.8039 7.33793L13.1397 8.86682L11.7547 10.127L12.1195 11.9743ZM2.74225 7.22653C-0.903097 7.48851 -3.64348 10.6533 -3.3815 14.2986C-3.11952 17.944 0.0452367 20.6843 3.69059 20.4224C7.33594 20.1604 10.0763 16.9956 9.81434 13.3503C9.55236 9.70493 6.3876 6.96455 2.74225 7.22653ZM3.4535 17.1234C1.63908 17.2538 0.0478558 15.876 -0.0825401 14.0615C-0.212936 12.2471 1.16491 10.6559 2.97934 10.5255C4.79376 10.3951 6.38498 11.7729 6.51538 13.5874C6.64577 15.4018 5.26793 16.993 3.4535 17.1234Z" fill="#C99A40" fill-opacity="0.54"/>
<path d="M44.242 -3.04823C44.2701 -3.5808 44.2816 -4.11219 44.2413 -4.67301C44.201 -5.23384 44.1136 -5.75811 44.0097 -6.2812L47.2945 -9.25297C47.5901 -9.52291 47.6406 -9.9742 47.4166 -10.3229L43.7075 -15.793C43.598 -15.9562 43.434 -16.075 43.2448 -16.1283C43.0557 -16.1815 42.8537 -16.1657 42.6752 -16.0835L38.6865 -14.1389C37.7814 -14.7371 36.8186 -15.215 35.7827 -15.5551L34.8418 -19.8811C34.8006 -20.0732 34.6907 -20.2437 34.5327 -20.3606C34.3747 -20.4774 34.1795 -20.5326 33.9838 -20.5158L27.3859 -20.0417C26.9735 -20.012 26.6484 -19.6902 26.6274 -19.2908L26.3147 -14.8746C25.3382 -14.3899 24.4548 -13.7627 23.6433 -13.0578L19.4175 -14.4121C19.3196 -14.4377 19.2181 -14.4472 19.1171 -14.4403C18.8367 -14.4201 18.5669 -14.2515 18.4374 -13.9769L15.5486 -8.03263C15.3603 -7.65434 15.4912 -7.21609 15.8224 -6.99119L19.4984 -4.51967C19.4704 -3.9871 19.46 -3.43922 19.4991 -2.89489C19.5383 -2.35056 19.6269 -1.80979 19.7308 -1.2867L16.446 1.68507C16.1503 1.95501 16.0999 2.4063 16.3239 2.75496L20.033 8.22508C20.1425 8.38827 20.3065 8.50715 20.4956 8.56039C20.6848 8.61364 20.8867 8.59778 21.0653 8.51565L25.0539 6.571C25.9591 7.16915 26.9219 7.6471 27.9577 7.98716L28.8987 12.3132C28.9766 12.7055 29.3443 12.9776 29.7567 12.9479L36.3546 12.4738C36.767 12.4441 37.092 12.1223 37.1131 11.7229L37.4257 7.30673C38.4023 6.82205 39.2857 6.19484 40.0972 5.4899L44.3229 6.84421C44.4243 6.87009 44.5244 6.87947 44.6234 6.87236C44.9038 6.85221 45.1735 6.6836 45.303 6.40902L48.1918 0.464735C48.3637 0.0876248 48.2492 -0.351808 47.918 -0.576707L44.242 -3.04823ZM40.7734 -5.63412C40.8761 -5.12752 40.9175 -4.78232 40.9424 -4.43593C40.9673 -4.08954 40.9603 -3.72428 40.9464 -3.22588L40.8494 -1.34538L42.4005 -0.296241L44.2815 0.961296L43.2703 3.04015L41.115 2.34946L39.3497 1.77996L37.9458 3.0083C37.2745 3.5871 36.6266 4.03158 35.9705 4.36059L34.273 5.19552L34.1431 7.0784L33.9732 9.32891L31.6639 9.49486L31.1905 7.29059L30.7926 5.44564L28.9932 4.86202C28.2626 4.61609 27.5755 4.28412 26.8802 3.8367L25.2962 2.78994L23.5987 3.62487L21.5643 4.61665L20.2662 2.70376L21.9481 1.19017L23.3332 -0.0699674L22.9683 -1.91728C22.8821 -2.42507 22.8218 -2.80207 22.7981 -3.13197C22.7744 -3.46187 22.7801 -3.84362 22.794 -4.34202L22.891 -6.22252L21.34 -7.27166L19.459 -8.52919L20.4702 -10.608L22.6255 -9.91736L24.3907 -9.34786L25.7946 -10.5762C26.466 -11.155 27.1138 -11.5995 27.77 -11.9285L29.4674 -12.7634L29.5974 -14.6463L29.7673 -16.8968L32.06 -17.0616L32.5335 -14.8573L32.9313 -13.0124L34.7308 -12.4287C35.4614 -12.1828 36.1484 -11.8508 36.8438 -11.4034L38.4278 -10.3567L40.1253 -11.1916L42.1596 -12.1834L43.4577 -10.2705L41.7935 -8.74158L40.4085 -7.48144L40.7734 -5.63412ZM31.3961 -10.3819C27.7507 -10.1199 25.0103 -6.95513 25.2723 -3.30978C25.5343 0.335566 28.699 3.07594 32.3444 2.81397C35.9897 2.55199 38.7301 -0.612768 38.4681 -4.25812C38.2062 -7.90347 35.0414 -10.6438 31.3961 -10.3819ZM32.1073 -0.484992C30.2929 -0.354596 28.7017 -1.73244 28.5713 -3.54687C28.4409 -5.36129 29.8187 -6.95251 31.6331 -7.08291C33.4476 -7.2133 35.0388 -5.83546 35.1692 -4.02103C35.2996 -2.20661 33.9217 -0.615388 32.1073 -0.484992Z" fill="#C99A40" fill-opacity="0.54"/>
</svg>
